<svg width="20" height="19" viewBox="0 0 20 19" fill="none" xmlns="http://www.w3.org/2000/svg">
<path d="M17.9442 4.73514C17.9569 4.94294 17.9569 5.15079 17.9569 5.35859C17.9569 11.6968 13.8326 19 6.29444 19C3.97209 19 1.81473 18.2132 0 16.8477C0.329962 16.8922 0.64719 16.907 0.989848 16.907C2.90607 16.907 4.67006 16.15 6.0787 14.8586C4.27666 14.8141 2.7665 13.4336 2.24618 11.5336C2.50001 11.5781 2.7538 11.6078 3.02032 11.6078C3.38833 11.6078 3.75638 11.5484 4.099 11.4445C2.22083 10.9992 0.812152 9.06952 0.812152 6.73905V6.6797C1.35782 7.03595 1.99239 7.25861 2.66493 7.28826C1.56087 6.4273 0.837542 4.95779 0.837542 3.29528C0.837542 2.40467 1.04055 1.58826 1.3959 0.875759C3.41369 3.78513 6.44671 5.6851 9.84769 5.89295C9.78426 5.5367 9.74617 5.16564 9.74617 4.79454C9.74617 2.15232 11.5736 0 13.8452 0C15.0254 0 16.0914 0.578905 16.8401 1.51406C17.7665 1.30626 18.6548 0.905458 19.4416 0.356253C19.137 1.46956 18.4898 2.40472 17.6396 2.99842C18.4645 2.89457 19.264 2.62732 20 2.25627C19.4417 3.20623 18.7437 4.05229 17.9442 4.73514V4.73514Z" fill="#F0DD2A"/>
</svg>
